<?xml version="1.0" encoding="UTF-8"?>
<svg version="1.1" xmlns="http://www.w3.org/2000/svg" width="800" height="800">
<path d="M0 0 C1.09989761 -0.00101212 1.09989761 -0.00101212 2.22201538 -0.00204468 C29.55222751 0.03780234 56.12000553 5.95801211 81 17.375 C82.03809814 17.85001953 83.07619629 18.32503906 84.14575195 18.81445312 C91.64932124 22.33457417 98.53305592 26.33002146 105.26171875 31.15625 C108.05352669 33.22140335 108.05352669 33.22140335 110.62890625 34.6796875 C128.40653944 45.59054024 144.27325368 62.27627921 156.1875 79.25 C157.00541016 80.41015625 157.00541016 80.41015625 157.83984375 81.59375 C159.33640283 83.7849983 160.7639066 86.01076688 162.1875 88.25 C163.05568359 89.53583984 163.05568359 89.53583984 163.94140625 90.84765625 C185.13236441 123.34045876 200.15002361 173.29132743 192.46380615 212.39825439 C190.41773114 221.37124 187.26031435 230.0418765 184.13590622 238.68401718 C182.82299898 242.35661235 181.57656304 246.05168824 180.32446289 249.74536133 C178.53295522 255.01515205 176.72525249 260.27871408 174.89243984 265.53428555 C170.78567159 277.31413216 166.9646197 289.17732716 163.19467163 301.06924438 C161.39556171 306.73440547 159.5739333 312.3923127 157.75390625 318.05078125 C157.20619316 319.75553871 157.20619316 319.75553871 156.64741516 321.49473572 C153.7623953 330.4721163 150.8655943 339.4456621 147.96484375 348.41796875 C147.74334404 349.10309288 147.52184433 349.78821701 147.29363251 350.49410248 C145.49097638 356.06963991 143.687889 361.64503788 141.88484955 367.22045135 C135.6579015 386.47645147 129.46044967 405.74149798 123.30560303 425.02069092 C117.07877729 444.51995075 110.77717266 463.99470414 104.46907425 483.46777725 C98.34135511 502.38446792 92.23341795 521.3069626 86.1875 540.25 C79.6689677 560.67383013 73.07578774 581.07302479 66.46887207 601.46838379 C60.02445944 621.36267239 53.60813321 641.26532576 47.25003052 661.18740845 C40.79215459 681.41693202 34.25107933 701.6192298 27.70474243 721.82025146 C20.9059572 742.80141283 14.15384141 763.79653396 7.48999023 784.82104492 C7.20130066 785.72991959 6.91261108 786.63879425 6.61517334 787.57521057 C6.08407208 789.24747382 5.55431325 790.92016427 5.02618408 792.59336853 C3.30002746 798.02494508 3.30002746 798.02494508 2.1875 800.25 C1.5275 800.25 0.8675 800.25 0.1875 800.25 C-7.411272 777.76758306 -14.77204823 755.2089271 -22.0625 732.625 C-22.28979294 731.92091759 -22.51708588 731.21683517 -22.75126648 730.49141693 C-29.09721422 710.8305697 -35.41048265 691.15940988 -41.69476318 671.47875977 C-47.64555077 652.84563478 -53.66080614 634.23367271 -59.6875 615.625 C-66.45934833 594.71530407 -73.21816772 573.80164972 -79.9375 552.875 C-86.2138275 533.3283625 -92.5066031 513.78711234 -98.8125 494.25 C-105.15872442 474.58746499 -111.49364156 454.92135147 -117.8125 435.25 C-124.09133465 415.70418758 -130.38358928 396.16273692 -136.6875 376.625 C-137.10640551 375.32661975 -137.52531013 374.02823922 -137.94421387 372.7298584 C-141.97144115 360.24782892 -145.99991003 347.76620053 -150.02997398 335.28508663 C-152.37465119 328.02355306 -154.71887437 320.76187303 -157.0625 313.5 C-157.27027321 312.85620266 -157.47804642 312.21240532 -157.69211578 311.54909897 C-164.30260208 291.06490491 -170.88493691 270.57182134 -177.43847656 250.06933594 C-177.7375441 249.13470016 -178.03661163 248.20006439 -178.34474182 247.23710632 C-178.93379006 245.39117666 -179.5200428 243.5443524 -180.1033783 241.6966095 C-181.67518335 236.73106894 -183.30699729 231.79462153 -185.0168457 226.87475586 C-189.17656585 214.74708339 -192.05881491 204.30959589 -191.5 191.4375 C-191.46571329 190.02323995 -191.43344311 188.60892973 -191.40307617 187.19458008 C-190.69444351 161.04609125 -184.59843987 135.21471044 -173.6875 111.4375 C-173.21248047 110.39940186 -172.73746094 109.36130371 -172.24804688 108.29174805 C-168.72792583 100.78817876 -164.73247854 93.90444408 -159.90625 87.17578125 C-157.84109665 84.38397331 -157.84109665 84.38397331 -156.3828125 81.80859375 C-143.47442849 60.77627652 -123.3545334 43.45438001 -102.8125 30.25 C-102.01811523 29.72365967 -101.22373047 29.19731934 -100.40527344 28.6550293 C-70.64775772 9.19454986 -35.33087724 0.02926918 0 0 Z M-55.125 161 C-66.51129454 175.99195448 -70.95971036 194.78426691 -68.53564453 213.37304688 C-65.31766322 233.40212774 -54.67302872 249.22538958 -38.59375 261.4375 C-22.33096912 272.03571675 -3.50641054 275.851218 15.6015625 272.22070312 C34.56971437 268.06495349 50.5676747 256.54593883 61.1875 240.25 C71.30746533 222.13199756 74.15870139 202.50245954 68.56640625 182.421875 C63.15372579 165.0593825 50.56194341 150.16185127 34.71875 141.3125 C1.97447659 124.59512243 -31.90565457 134.2221342 -55.125 161 Z " fill="#515151" transform="translate(398.8125,-0.25)"/>
</svg>
